<?xml version="1.0" encoding="UTF-8" standalone="no"?><!-- Generator: Gravit.io --><svg xmlns="http://www.w3.org/2000/svg" xmlns:xlink="http://www.w3.org/1999/xlink" style="isolation:isolate" viewBox="0 0 1024 1024" width="1024pt" height="1024pt"><defs><clipPath id="_clipPath_zSyshX4jYOXDP5Qm8rN8kd7TE2l8YT4q"><rect width="1024" height="1024"/></clipPath></defs><g clip-path="url(#_clipPath_zSyshX4jYOXDP5Qm8rN8kd7TE2l8YT4q)"><ellipse vector-effect="non-scaling-stroke" cx="512" cy="511.99999999999994" rx="475.29037800687274" ry="459.4999999999998" fill="rgb(232,234,246)"/><defs><filter id="cWaHwBPM0N44MXZ92lHtrewrLEAg1OSq" x="-200%" y="-200%" width="400%" height="400%" filterUnits="objectBoundingBox" color-interpolation-filters="sRGB"><feGaussianBlur xmlns="http://www.w3.org/2000/svg" in="SourceGraphic" stdDeviation="4.293609062839028"/><feOffset xmlns="http://www.w3.org/2000/svg" dx="10" dy="10" result="pf_100_offsetBlur"/><feFlood xmlns="http://www.w3.org/2000/svg" flood-color="#000000" flood-opacity="0.65"/><feComposite xmlns="http://www.w3.org/2000/svg" in2="pf_100_offsetBlur" operator="in" result="pf_100_dropShadow"/><feBlend xmlns="http://www.w3.org/2000/svg" in="SourceGraphic" in2="pf_100_dropShadow" mode="normal"/></filter></defs><g filter="url(#cWaHwBPM0N44MXZ92lHtrewrLEAg1OSq)"><path d=" M 512 122.184 C 361.141 122.184 239.129 244.196 239.129 395.055 C 239.129 599.709 512 901.816 512 901.816 C 512 901.816 784.871 599.709 784.871 395.055 C 784.871 244.196 662.859 122.184 512 122.184 Z " fill="rgb(63,81,181)"/></g><g><defs><filter id="xnc6LSKpE398mSvAQ8GmRq2ksf1Q8mEK" x="-200%" y="-200%" width="400%" height="400%" filterUnits="objectBoundingBox" color-interpolation-filters="sRGB"><feGaussianBlur xmlns="http://www.w3.org/2000/svg" in="SourceGraphic" stdDeviation="4.293609062839028"/><feOffset xmlns="http://www.w3.org/2000/svg" dx="10" dy="10" result="pf_100_offsetBlur"/><feFlood xmlns="http://www.w3.org/2000/svg" flood-color="#000000" flood-opacity="1"/><feComposite xmlns="http://www.w3.org/2000/svg" in2="pf_100_offsetBlur" operator="in" result="pf_100_dropShadow"/><feBlend xmlns="http://www.w3.org/2000/svg" in="SourceGraphic" in2="pf_100_dropShadow" mode="normal"/></filter></defs><g filter="url(#xnc6LSKpE398mSvAQ8GmRq2ksf1Q8mEK)"><path d=" M 375.227 260.836 L 656.773 260.836 C 662.991 260.836 668.409 265.872 668.862 272.074 L 671.201 304.034 C 671.882 313.337 664.861 320.89 655.533 320.89 L 376.467 320.89 C 367.139 320.89 360.118 313.337 360.799 304.034 L 363.138 272.074 C 363.591 265.872 369.009 260.836 375.227 260.836 Z " fill="rgb(255,255,255)"/></g><defs><filter id="MiZd5OardU4hDQQZnB2R8p74kEqk6EXB" x="-200%" y="-200%" width="400%" height="400%" filterUnits="objectBoundingBox" color-interpolation-filters="sRGB"><feGaussianBlur xmlns="http://www.w3.org/2000/svg" in="SourceGraphic" stdDeviation="4.293609062839028"/><feOffset xmlns="http://www.w3.org/2000/svg" dx="10" dy="10" result="pf_100_offsetBlur"/><feFlood xmlns="http://www.w3.org/2000/svg" flood-color="#000000" flood-opacity="1"/><feComposite xmlns="http://www.w3.org/2000/svg" in2="pf_100_offsetBlur" operator="in" result="pf_100_dropShadow"/><feBlend xmlns="http://www.w3.org/2000/svg" in="SourceGraphic" in2="pf_100_dropShadow" mode="normal"/></filter></defs><g filter="url(#MiZd5OardU4hDQQZnB2R8p74kEqk6EXB)"><path d=" M 375.227 374.509 L 656.773 374.509 C 662.991 374.509 668.409 379.545 668.862 385.747 L 671.201 417.707 C 671.882 427.01 664.861 434.563 655.533 434.563 L 376.467 434.563 C 367.139 434.563 360.118 427.01 360.799 417.707 L 363.138 385.747 C 363.591 379.545 369.009 374.509 375.227 374.509 Z " fill="rgb(255,255,255)"/></g><defs><filter id="0kwRCxOFqGGXH3ru3XBkrq387B4Mg0Gq" x="-200%" y="-200%" width="400%" height="400%" filterUnits="objectBoundingBox" color-interpolation-filters="sRGB"><feGaussianBlur xmlns="http://www.w3.org/2000/svg" in="SourceGraphic" stdDeviation="4.293609062839028"/><feOffset xmlns="http://www.w3.org/2000/svg" dx="10" dy="10" result="pf_100_offsetBlur"/><feFlood xmlns="http://www.w3.org/2000/svg" flood-color="#000000" flood-opacity="1"/><feComposite xmlns="http://www.w3.org/2000/svg" in2="pf_100_offsetBlur" operator="in" result="pf_100_dropShadow"/><feBlend xmlns="http://www.w3.org/2000/svg" in="SourceGraphic" in2="pf_100_dropShadow" mode="normal"/></filter></defs><g filter="url(#0kwRCxOFqGGXH3ru3XBkrq387B4Mg0Gq)"><path d=" M 375.227 487.11 L 656.773 487.11 C 662.991 487.11 668.409 492.145 668.862 498.347 L 671.201 530.308 C 671.882 539.611 664.861 547.164 655.533 547.164 L 376.467 547.164 C 367.139 547.164 360.118 539.611 360.799 530.308 L 363.138 498.347 C 363.591 492.145 369.009 487.11 375.227 487.11 Z " fill="rgb(255,255,255)"/></g></g></g></svg>